<svg xmlns="http://www.w3.org/2000/svg" height="1024" preserveAspectRatio="none" style="display: block;" version="1.1" viewBox="0 0 2048 2048" width="1024">
<defs>
	<clipPath id="roundedCorners">
    <rect width="2048" height="2048" rx="420" ry="420"/>
  </clipPath>
	<linearGradient gradientUnits="userSpaceOnUse" id="Gradient1" x1="1806.99" x2="1807.01" y1="1026.89" y2="1032.11">
		<stop class="stop0" offset="0" stop-color="rgb(47,45,47)" stop-opacity="1"></stop>
		<stop class="stop1" offset="1" stop-color="rgb(82,82,82)" stop-opacity="1"></stop>
	</linearGradient>
</defs>
<rect width="2048" height="2048" rx="420" ry="420" fill="rgb(25,24,25)"/>
<g clip-path="url(#roundedCorners)">
<path d="M 465.961 301.105 C 466.856 260.021 465.841 218.426 466.299 177.341 C 466.449 163.864 465.484 133.666 467.216 122.14 C 467.531 141.386 467.637 160.635 467.535 179.884 L 647.641 180.054 C 674.433 180.047 703.346 179.481 729.927 180.097 C 729.9 172.13 728.803 125.74 731.463 122.212 C 732.842 138.397 732.146 163.326 732.075 179.923 L 1319.04 180.152 L 1320.55 127.326 C 1322.14 131.815 1320.91 172.599 1320.92 179.992 L 1588.49 180.001 C 1588.5 162.722 1588.06 142.961 1588.87 125.881 C 1590.22 139.336 1589.53 161.383 1589.56 175.67 L 1589.84 265.236 C 1589.85 270.508 1589.47 297.227 1590.63 300.349 C 1637.76 314.867 1656.74 324.387 1692.87 358.691 L 1694.97 360.305 C 1726.61 397.467 1738.37 422.383 1748.7 469.423 C 1757.59 470.573 1781.75 469.992 1791.99 469.992 L 1875.77 470.013 C 1881.69 470.019 1904.29 469.691 1908.78 471.017 C 1898.95 472.223 1876.5 472.102 1865.85 471.403 L 1865.12 727.95 C 1872.81 727.952 1927.84 726.945 1930.88 729.508 C 1909.93 730.619 1885.91 729.918 1864.71 729.996 C 1863.66 802.573 1865.4 879.665 1865.98 952.446 L 1865.91 1174.77 C 1865.93 1220.91 1867.03 1272.14 1865.66 1317.97 C 1875.25 1318.01 1923.46 1317.62 1928.21 1318.95 C 1924.55 1320.73 1873.26 1319.97 1865.44 1319.94 C 1866.02 1350.07 1865.3 1381.04 1865.25 1411.3 C 1865.05 1466.89 1865.27 1522.48 1865.9 1578.07 C 1882.95 1578.06 1917.22 1577.06 1933.05 1579.11 C 1923.63 1580.64 1887.26 1579.95 1875.59 1579.97 L 1747.83 1580.24 C 1739.94 1621.83 1723.73 1655.05 1695.3 1686.7 L 1693.91 1688.27 C 1669.67 1713.77 1645.43 1728.99 1612.39 1741.46 C 1607.1 1743.45 1595.39 1747.32 1589.91 1747.58 C 1590.7 1782.36 1589.15 1819.65 1589.74 1854.92 C 1590 1870.27 1590.72 1909.85 1589.3 1922.11 L 1588.7 1922.12 C 1587.56 1911.17 1588.18 1883.94 1588.31 1871.93 L 1319.88 1871.97 C 1319.9 1878.6 1320.53 1920.29 1318.81 1923.23 C 1317.82 1909.14 1317.94 1886.27 1318.24 1871.81 L 732.046 1872.04 C 732.065 1878.51 732.641 1927.83 731.093 1929.84 C 728.917 1918.7 729.887 1885.05 729.944 1871.98 C 642.984 1871.97 554.454 1871.09 467.685 1872.12 C 467.736 1880.19 468.45 1917.78 466.795 1923.09 C 465.444 1904.55 466.235 1879.15 466.288 1860.06 C 466.509 1823.42 466.373 1786.77 465.879 1750.13 C 419.9 1740.11 391.642 1723.37 357.437 1692.17 L 355.7 1690.57 C 323.797 1657.97 305.364 1625.96 297.3 1580.59 C 286.543 1579 260.126 1579.81 247.809 1579.83 L 153.564 1579.96 C 148.767 1579.96 126.478 1580.35 123.506 1579.11 C 130.517 1577.36 170.391 1578 180.09 1578 C 180.365 1492.02 180.041 1406.04 179.12 1320.07 C 162.024 1320.08 142.643 1320.51 125.742 1319.6 L 125.59 1319.1 C 136.306 1317.14 166.664 1317.92 179.139 1317.93 L 178.944 1116.13 C 178.928 1103.93 178.18 1041.51 179.845 1034.5 L 180.148 1022.78 C 179.206 998.542 180.121 969.886 179.876 945.173 C 178.923 874.033 178.529 802.886 178.694 731.74 C 162.975 732.291 133.768 732.684 118.295 731.44 C 123.824 728.832 169.548 729.862 178.931 729.875 L 178.299 471.061 C 165.029 471.336 149.645 472.079 136.662 470.545 L 136.929 470.046 C 149.833 468.169 178.25 468.977 192.501 468.996 C 227.843 469.146 263.185 469.093 298.525 468.838 C 306.945 426.189 326.35 392.654 355.666 361.352 L 357.074 359.442 C 388.933 328.666 422.929 310.727 465.961 301.105 z" fill="rgb(254,254,254)" transform="translate(0,0)"></path>
<path d="M 1587.72 1748.42 L 1589.91 1747.58 C 1590.7 1782.36 1589.15 1819.65 1589.74 1854.92 C 1590 1870.27 1590.72 1909.85 1589.3 1922.11 L 1588.7 1922.12 C 1587.56 1911.17 1588.18 1883.94 1588.31 1871.93 L 1319.88 1871.97 C 1319.9 1878.6 1320.53 1920.29 1318.81 1923.23 C 1317.82 1909.14 1317.94 1886.27 1318.24 1871.81 L 732.046 1872.04 C 732.065 1878.51 732.641 1927.83 731.093 1929.84 C 728.917 1918.7 729.887 1885.05 729.944 1871.98 C 642.984 1871.97 554.454 1871.09 467.685 1872.12 C 467.736 1880.19 468.45 1917.78 466.795 1923.09 C 465.444 1904.55 466.235 1879.15 466.288 1860.06 C 466.509 1823.42 466.373 1786.77 465.879 1750.13 L 468.047 1750.39 C 497.03 1756.02 541.771 1754.03 572.951 1753.96 L 729.681 1753.92 L 732.222 1753.77 C 751.768 1753.77 780.128 1752.9 798.978 1753.89 C 803.681 1753.21 819.604 1753.41 824.876 1753.39 L 875.108 1753.25 C 923.219 1753.13 976.569 1751.89 1024.36 1753.24 C 1060.41 1752.77 1097.19 1752.97 1133.29 1753.03 C 1152.9 1753.07 1178.87 1752.24 1197.98 1753.15 C 1267.24 1751.75 1340.25 1753.08 1409.84 1753.04 L 1483.99 1753 C 1494.88 1753.02 1516.25 1752.63 1526.2 1753.88 C 1549.63 1753.86 1564.56 1753.53 1587.72 1748.42 z" fill="rgb(25,24,25)" transform="translate(0,0)"></path>
<path d="M 1024.36 1753.24 C 1060.41 1752.77 1097.19 1752.97 1133.29 1753.03 C 1152.9 1753.07 1178.87 1752.24 1197.98 1753.15 C 1234.4 1755.33 1280.67 1754.23 1317.79 1754.21 C 1318.21 1792.87 1318.34 1831.52 1318.17 1870.18 L 1024.18 1869.91 L 1024.36 1753.24 z" fill="rgb(25,24,25)" transform="translate(0,0)"></path>
<path d="M 1526.2 1753.88 C 1549.63 1753.86 1564.56 1753.53 1587.72 1748.42 C 1588.49 1788.96 1588.68 1829.51 1588.28 1870.05 L 1319.97 1869.96 C 1319.84 1831.39 1319.94 1792.83 1320.27 1754.27 L 1464 1754.16 C 1475.58 1754.17 1516.84 1755.24 1526.2 1753.88 z" fill="rgb(25,24,25)" transform="translate(0,0)"></path>
<path d="M 468.047 1750.39 C 497.03 1756.02 541.771 1754.03 572.951 1753.96 L 729.681 1753.92 L 729.925 1870.03 C 642.934 1868.74 554.74 1871.17 467.59 1869.81 C 468.532 1831.02 467.546 1789.72 468.047 1750.39 z" fill="rgb(25,24,25)" transform="translate(0,0)"></path>
<path d="M 1587.72 1748.42 L 1589.91 1747.58 C 1590.7 1782.36 1589.15 1819.65 1589.74 1854.92 C 1590 1870.27 1590.72 1909.85 1589.3 1922.11 L 1588.7 1922.12 C 1587.56 1911.17 1588.18 1883.94 1588.31 1871.93 L 1319.88 1871.97 C 1319.9 1878.6 1320.53 1920.29 1318.81 1923.23 C 1317.82 1909.14 1317.94 1886.27 1318.24 1871.81 L 732.046 1872.04 C 732.065 1878.51 732.641 1927.83 731.093 1929.84 C 728.917 1918.7 729.887 1885.05 729.944 1871.98 C 642.984 1871.97 554.454 1871.09 467.685 1872.12 C 467.736 1880.19 468.45 1917.78 466.795 1923.09 C 465.444 1904.55 466.235 1879.15 466.288 1860.06 C 466.509 1823.42 466.373 1786.77 465.879 1750.13 L 468.047 1750.39 C 467.546 1789.72 468.532 1831.02 467.59 1869.81 C 554.74 1871.17 642.934 1868.74 729.925 1870.03 L 729.681 1753.92 L 732.222 1753.77 L 732.059 1869.88 L 1021.85 1869.99 L 1021.67 1754.2 L 868.116 1754.36 C 855.338 1754.38 808.999 1755.4 798.978 1753.89 C 803.681 1753.21 819.604 1753.41 824.876 1753.39 L 875.108 1753.25 C 923.219 1753.13 976.569 1751.89 1024.36 1753.24 L 1024.18 1869.91 L 1318.17 1870.18 C 1318.34 1831.52 1318.21 1792.87 1317.79 1754.21 C 1280.67 1754.23 1234.4 1755.33 1197.98 1753.15 C 1267.24 1751.75 1340.25 1753.08 1409.84 1753.04 L 1483.99 1753 C 1494.88 1753.02 1516.25 1752.63 1526.2 1753.88 C 1516.84 1755.24 1475.58 1754.17 1464 1754.16 L 1320.27 1754.27 C 1319.94 1792.83 1319.84 1831.39 1319.97 1869.96 L 1588.28 1870.05 C 1588.68 1829.51 1588.49 1788.96 1587.72 1748.42 z" fill="rgb(62,62,63)" transform="translate(0,0)"></path>
<path d="M 465.961 301.105 C 466.856 260.021 465.841 218.426 466.299 177.341 C 466.449 163.864 465.484 133.666 467.216 122.14 C 467.531 141.386 467.637 160.635 467.535 179.884 L 647.641 180.054 C 674.433 180.047 703.346 179.481 729.927 180.097 C 729.9 172.13 728.803 125.74 731.463 122.212 C 732.842 138.397 732.146 163.326 732.075 179.923 L 1319.04 180.152 L 1320.55 127.326 C 1322.14 131.815 1320.91 172.599 1320.92 179.992 L 1588.49 180.001 C 1588.5 162.722 1588.06 142.961 1588.87 125.881 C 1590.22 139.336 1589.53 161.383 1589.56 175.67 L 1589.84 265.236 C 1589.85 270.508 1589.47 297.227 1590.63 300.349 L 1587.12 299.749 C 1558.13 293.893 1499.53 295.924 1467.16 295.761 C 1432.62 297.209 1389.1 295.786 1353.73 295.873 L 1102.07 295.566 L 510.263 295.63 C 494.7 296.06 483.399 297.374 468.091 300.756 L 465.961 301.105 z" fill="rgb(62,62,63)" transform="translate(0,0)"></path>
<path d="M 1319.99 181.984 L 1588.49 182.01 C 1588.44 194.61 1588.95 296.141 1587.12 299.749 C 1558.13 293.893 1499.53 295.924 1467.16 295.761 C 1457.27 292.484 1339.57 294.951 1320.18 294.753 L 1319.99 181.984 z" fill="rgb(25,24,25)" transform="translate(0,0)"></path>
<path d="M 467.708 181.998 L 729.961 181.892 L 729.745 294.727 C 709.601 294.523 513.314 293.88 510.263 295.63 C 494.7 296.06 483.399 297.374 468.091 300.756 C 467.624 261.172 467.496 221.584 467.708 181.998 z" fill="rgb(25,24,25)" transform="translate(0,0)"></path>
<path d="M 1024.17 181.862 C 1053.24 183.335 1095.17 182.022 1124.98 182.016 L 1318.62 181.884 C 1317.13 218.735 1318.91 257.485 1317.91 294.838 L 1024.32 294.615 L 1024.17 181.862 z" fill="rgb(25,24,25)" transform="translate(0,0)"></path>
<path d="M 732.076 181.984 L 1021.8 182.095 L 1021.69 294.647 L 732.323 294.695 L 732.076 181.984 z" fill="rgb(25,24,25)" transform="translate(0,0)"></path>
<path d="M 1748.7 469.423 C 1757.59 470.573 1781.75 469.992 1791.99 469.992 L 1875.77 470.013 C 1881.69 470.019 1904.29 469.691 1908.78 471.017 C 1898.95 472.223 1876.5 472.102 1865.85 471.403 L 1865.12 727.95 C 1872.81 727.952 1927.84 726.945 1930.88 729.508 C 1909.93 730.619 1885.91 729.918 1864.71 729.996 C 1863.66 802.573 1865.4 879.665 1865.98 952.446 L 1865.91 1174.77 C 1865.93 1220.91 1867.03 1272.14 1865.66 1317.97 C 1875.25 1318.01 1923.46 1317.62 1928.21 1318.95 C 1924.55 1320.73 1873.26 1319.97 1865.44 1319.94 C 1866.02 1350.07 1865.3 1381.04 1865.25 1411.3 C 1865.05 1466.89 1865.27 1522.48 1865.9 1578.07 C 1882.95 1578.06 1917.22 1577.06 1933.05 1579.11 C 1923.63 1580.64 1887.26 1579.95 1875.59 1579.97 L 1747.83 1580.24 L 1748.49 1577.11 C 1749.92 1565.88 1750.93 1559.21 1751.27 1547.73 C 1750.38 1536.03 1751.08 1511.52 1751.08 1499.2 L 1751.13 1401.11 L 1751.22 1175.12 C 1751.24 1133.04 1751.78 1089.75 1751.05 1047.82 C 1750.69 1043.99 1751.09 1036.92 1751.21 1032.84 C 1751.23 1024.68 1751.18 1017.14 1751.86 1008.98 C 1750.53 982.862 1751.97 941.058 1751.98 913.448 L 1751.6 731.567 C 1750.55 720.883 1751.04 693.615 1751.16 681.884 C 1751.39 658.751 1750.41 630.676 1751.86 607.981 C 1751.18 599.783 1751.91 585.056 1751.79 576.188 C 1751.34 542.102 1753.7 508.665 1749.5 474.74 C 1749.35 474.339 1748.8 470.143 1748.7 469.423 z" fill="rgb(25,24,25)" transform="translate(0,0)"></path>
<path d="M 1751.6 731.567 L 1862.59 729.993 C 1861.97 757.716 1865.25 1018.83 1863.28 1023.02 L 1862.26 1025.45 C 1857.25 1027.32 1854.48 1025.9 1849.47 1026.95 C 1820.71 1027.11 1791.86 1027.33 1763.08 1027.29 C 1756.09 1027.28 1753.73 1025.97 1751.21 1032.84 C 1751.23 1024.68 1751.18 1017.14 1751.86 1008.98 C 1750.53 982.862 1751.97 941.058 1751.98 913.448 L 1751.6 731.567 z" fill="rgb(25,24,25)" transform="translate(0,0)"></path>
<path d="M 1751.86 1008.98 C 1752.14 1013.79 1752.35 1017.86 1752.3 1022.72 C 1776.65 1022.39 1801.01 1022.31 1825.37 1022.49 C 1836.54 1022.54 1852.32 1022.22 1863.28 1023.02 L 1862.26 1025.45 C 1857.25 1027.32 1854.48 1025.9 1849.47 1026.95 C 1820.71 1027.11 1791.86 1027.33 1763.08 1027.29 C 1756.09 1027.28 1753.73 1025.97 1751.21 1032.84 C 1751.23 1024.68 1751.18 1017.14 1751.86 1008.98 z" fill="rgb(77,77,77)" transform="translate(0,0)"></path>
<path d="M 1751.21 1032.84 C 1753.73 1025.97 1756.09 1027.28 1763.08 1027.29 C 1791.86 1027.33 1820.71 1027.11 1849.47 1026.95 C 1853.56 1027.31 1855.79 1027.5 1859.86 1027.36 L 1861.95 1028.64 L 1863.04 1033.86 C 1865.29 1038.44 1864.07 1293.94 1864.07 1318.01 C 1826.82 1318.15 1789.56 1318.06 1752.3 1317.74 L 1752.32 1136.27 L 1752.38 1079.85 C 1752.39 1071.39 1752.79 1056.11 1752 1047.97 L 1751.05 1047.82 C 1750.69 1043.99 1751.09 1036.92 1751.21 1032.84 z" fill="rgb(25,24,25)" transform="translate(0,0)"></path>
<path d="M 1751.21 1032.84 C 1753.73 1025.97 1756.09 1027.28 1763.08 1027.29 C 1791.86 1027.33 1820.71 1027.11 1849.47 1026.95 C 1853.56 1027.31 1855.79 1027.5 1859.86 1027.36 L 1861.95 1028.64 L 1863.04 1033.86 L 1752.17 1033.84 C 1752.07 1038.05 1751.76 1043.9 1752 1047.97 L 1751.05 1047.82 C 1750.69 1043.99 1751.09 1036.92 1751.21 1032.84 z" fill="url(#Gradient1)" transform="translate(0,0)"></path>
<path d="M 1749.5 474.74 L 1750.45 472.694 C 1757.35 471.616 1764.83 472.042 1771.83 471.915 C 1802.46 471.359 1833.47 472.468 1864.06 471.427 C 1864.03 545.135 1863.31 618.745 1862.7 692.445 C 1862.61 704.287 1862.54 716.176 1862.78 728.013 C 1825.71 727.843 1789.12 728.74 1752.32 728.716 L 1752.42 647.445 C 1752.43 639.426 1752.91 614.808 1751.86 607.981 C 1751.18 599.783 1751.91 585.056 1751.79 576.188 C 1751.34 542.102 1753.7 508.665 1749.5 474.74 z" fill="rgb(25,24,25)" transform="translate(0,0)"></path>
<path d="M 1748.7 469.423 C 1757.59 470.573 1781.75 469.992 1791.99 469.992 L 1875.77 470.013 C 1881.69 470.019 1904.29 469.691 1908.78 471.017 C 1898.95 472.223 1876.5 472.102 1865.85 471.403 L 1865.12 727.95 C 1872.81 727.952 1927.84 726.945 1930.88 729.508 C 1909.93 730.619 1885.91 729.918 1864.71 729.996 C 1863.66 802.573 1865.4 879.665 1865.98 952.446 L 1865.91 1174.77 C 1865.93 1220.91 1867.03 1272.14 1865.66 1317.97 C 1875.25 1318.01 1923.46 1317.62 1928.21 1318.95 C 1924.55 1320.73 1873.26 1319.97 1865.44 1319.94 C 1866.02 1350.07 1865.3 1381.04 1865.25 1411.3 C 1865.05 1466.89 1865.27 1522.48 1865.9 1578.07 C 1882.95 1578.06 1917.22 1577.06 1933.05 1579.11 C 1923.63 1580.64 1887.26 1579.95 1875.59 1579.97 L 1747.83 1580.24 L 1748.49 1577.11 C 1752.55 1578.3 1779.43 1578.01 1785.18 1578.01 L 1863.92 1578.03 L 1863.85 1319.97 L 1752.34 1320.25 C 1752.37 1341.95 1753.12 1544.64 1751.27 1547.73 C 1750.38 1536.03 1751.08 1511.52 1751.08 1499.2 L 1751.13 1401.11 L 1751.22 1175.12 C 1751.24 1133.04 1751.78 1089.75 1751.05 1047.82 L 1752 1047.97 C 1752.79 1056.11 1752.39 1071.39 1752.38 1079.85 L 1752.32 1136.27 L 1752.3 1317.74 C 1789.56 1318.06 1826.82 1318.15 1864.07 1318.01 C 1864.07 1293.94 1865.29 1038.44 1863.04 1033.86 L 1861.95 1028.64 L 1859.86 1027.36 C 1855.79 1027.5 1853.56 1027.31 1849.47 1026.95 C 1854.48 1025.9 1857.25 1027.32 1862.26 1025.45 L 1863.28 1023.02 C 1865.25 1018.83 1861.97 757.716 1862.59 729.993 L 1751.6 731.567 C 1750.55 720.883 1751.04 693.615 1751.16 681.884 C 1751.39 658.751 1750.41 630.676 1751.86 607.981 C 1752.91 614.808 1752.43 639.426 1752.42 647.445 L 1752.32 728.716 C 1789.12 728.74 1825.71 727.843 1862.78 728.013 C 1862.54 716.176 1862.61 704.287 1862.7 692.445 C 1863.31 618.745 1864.03 545.135 1864.06 471.427 C 1833.47 472.468 1802.46 471.359 1771.83 471.915 C 1764.83 472.042 1757.35 471.616 1750.45 472.694 L 1749.5 474.74 C 1749.35 474.339 1748.8 470.143 1748.7 469.423 z" fill="rgb(62,62,63)" transform="translate(0,0)"></path>
<path d="M 178.299 471.061 C 165.029 471.336 149.645 472.079 136.662 470.545 L 136.929 470.046 C 149.833 468.169 178.25 468.977 192.501 468.996 C 227.843 469.146 263.185 469.093 298.525 468.838 L 297.605 472.905 C 293.996 493.74 294.091 510.639 294.228 531.59 C 294.263 536.796 294.606 550.488 294.143 554.98 C 295.899 579.442 294.994 617.206 294.858 642.429 C 294.721 667.995 295.977 703.015 294.735 727.435 C 296.334 787.547 294.666 852.686 294.751 913.306 L 294.908 985.329 C 294.93 996.934 295.452 1016.92 294.241 1027.78 L 294.21 1035.06 C 257.703 1034.03 217.88 1034.88 181.036 1034.72 L 179.845 1034.5 L 180.148 1022.78 C 179.206 998.542 180.121 969.886 179.876 945.173 C 178.923 874.033 178.529 802.886 178.694 731.74 C 162.975 732.291 133.768 732.684 118.295 731.44 C 123.824 728.832 169.548 729.862 178.931 729.875 L 178.299 471.061 z" fill="rgb(25,24,25)" transform="translate(0,0)"></path>
<path d="M 178.299 471.061 C 165.029 471.336 149.645 472.079 136.662 470.545 L 136.929 470.046 C 149.833 468.169 178.25 468.977 192.501 468.996 C 227.843 469.146 263.185 469.093 298.525 468.838 L 297.605 472.905 C 293.996 493.74 294.091 510.639 294.228 531.59 C 294.263 536.796 294.606 550.488 294.143 554.98 C 295.899 579.442 294.994 617.206 294.858 642.429 C 294.721 667.995 295.977 703.015 294.735 727.435 L 293.818 732.206 C 284.808 730.613 263.395 731.176 253.329 731.174 L 181.009 731.146 L 181.332 921.417 C 181.633 944.356 181.738 967.296 181.647 990.236 C 181.619 999.408 181.996 1013.42 181.245 1022.3 L 180.148 1022.78 C 179.206 998.542 180.121 969.886 179.876 945.173 C 178.923 874.033 178.529 802.886 178.694 731.74 C 162.975 732.291 133.768 732.684 118.295 731.44 C 123.824 728.832 169.548 729.862 178.931 729.875 L 178.299 471.061 z" fill="rgb(25,24,25)" transform="translate(0,0)"></path>
<path d="M 178.299 471.061 C 165.029 471.336 149.645 472.079 136.662 470.545 L 136.929 470.046 C 149.833 468.169 178.25 468.977 192.501 468.996 C 227.843 469.146 263.185 469.093 298.525 468.838 L 297.605 472.905 C 289.196 471.117 273.152 471.929 263.986 471.596 C 236.785 470.609 206.622 472.487 179.675 471.016 L 180.107 610.443 C 180.438 650.192 181.501 689.484 181.037 729.413 C 205.274 728.964 229.516 728.81 253.758 728.952 C 264.961 728.935 283.181 729.396 293.649 727.899 L 293.57 614.457 C 293.562 599.683 292.724 568.701 294.143 554.98 C 295.899 579.442 294.994 617.206 294.858 642.429 C 294.721 667.995 295.977 703.015 294.735 727.435 L 293.818 732.206 C 284.808 730.613 263.395 731.176 253.329 731.174 L 181.009 731.146 L 181.332 921.417 C 181.633 944.356 181.738 967.296 181.647 990.236 C 181.619 999.408 181.996 1013.42 181.245 1022.3 L 180.148 1022.78 C 179.206 998.542 180.121 969.886 179.876 945.173 C 178.923 874.033 178.529 802.886 178.694 731.74 C 162.975 732.291 133.768 732.684 118.295 731.44 C 123.824 728.832 169.548 729.862 178.931 729.875 L 178.299 471.061 z" fill="rgb(62,62,63)" transform="translate(0,0)"></path>
<path d="M 293.818 732.206 L 294.735 727.435 C 296.334 787.547 294.666 852.686 294.751 913.306 L 294.908 985.329 C 294.93 996.934 295.452 1016.92 294.241 1027.78 L 294.21 1035.06 C 257.703 1034.03 217.88 1034.88 181.036 1034.72 L 179.845 1034.5 L 180.148 1022.78 L 181.245 1022.3 C 187.383 1022.35 197.524 1022.14 203.275 1022.86 C 230.749 1021.88 265.747 1023.06 293.831 1023.18 L 293.818 732.206 z" fill="rgb(97,98,99)" transform="translate(0,0)"></path>
<path d="M 181.245 1022.3 C 187.383 1022.35 197.524 1022.14 203.275 1022.86 C 197.213 1023.14 184.22 1022.58 180.18 1025.25 C 180.435 1026.43 180.382 1027.28 181.208 1027.32 C 211.308 1028.76 266.424 1027.6 294.241 1027.78 L 294.21 1035.06 C 257.703 1034.03 217.88 1034.88 181.036 1034.72 L 179.845 1034.5 L 180.148 1022.78 L 181.245 1022.3 z" fill="rgb(77,77,77)" transform="translate(0,0)"></path>
<path d="M 181.036 1034.72 C 217.88 1034.88 257.703 1034.03 294.21 1035.06 L 294.158 1317.72 L 294.109 1320.22 L 294.135 1475.46 C 294.137 1506.17 292.88 1546.64 296.494 1576.16 L 297.3 1580.59 C 286.543 1579 260.126 1579.81 247.809 1579.83 L 153.564 1579.96 C 148.767 1579.96 126.478 1580.35 123.506 1579.11 C 130.517 1577.36 170.391 1578 180.09 1578 C 180.365 1492.02 180.041 1406.04 179.12 1320.07 C 162.024 1320.08 142.643 1320.51 125.742 1319.6 L 125.59 1319.1 C 136.306 1317.14 166.664 1317.92 179.139 1317.93 L 178.944 1116.13 C 178.928 1103.93 178.18 1041.51 179.845 1034.5 L 181.036 1034.72 z" fill="rgb(25,24,25)" transform="translate(0,0)"></path>
<path d="M 179.845 1034.5 L 181.036 1034.72 L 181.339 1317.9 C 218.945 1318.11 256.553 1318.05 294.158 1317.72 L 294.109 1320.22 L 294.135 1475.46 C 294.137 1506.17 292.88 1546.64 296.494 1576.16 L 297.3 1580.59 C 286.543 1579 260.126 1579.81 247.809 1579.83 L 153.564 1579.96 C 148.767 1579.96 126.478 1580.35 123.506 1579.11 C 130.517 1577.36 170.391 1578 180.09 1578 C 180.365 1492.02 180.041 1406.04 179.12 1320.07 C 162.024 1320.08 142.643 1320.51 125.742 1319.6 L 125.59 1319.1 C 136.306 1317.14 166.664 1317.92 179.139 1317.93 L 178.944 1116.13 C 178.928 1103.93 178.18 1041.51 179.845 1034.5 z" fill="rgb(25,24,25)" transform="translate(0,0)"></path>
<path d="M 179.845 1034.5 L 181.036 1034.72 L 181.339 1317.9 C 218.945 1318.11 256.553 1318.05 294.158 1317.72 L 294.109 1320.22 L 181.167 1320.03 L 181.853 1578.02 C 207.555 1578.08 233.476 1578.18 259.161 1578 C 266.391 1577.95 290.123 1577.57 296.494 1576.16 L 297.3 1580.59 C 286.543 1579 260.126 1579.81 247.809 1579.83 L 153.564 1579.96 C 148.767 1579.96 126.478 1580.35 123.506 1579.11 C 130.517 1577.36 170.391 1578 180.09 1578 C 180.365 1492.02 180.041 1406.04 179.12 1320.07 C 162.024 1320.08 142.643 1320.51 125.742 1319.6 L 125.59 1319.1 C 136.306 1317.14 166.664 1317.92 179.139 1317.93 L 178.944 1116.13 C 178.928 1103.93 178.18 1041.51 179.845 1034.5 z" fill="rgb(62,62,63)" transform="translate(0,0)"></path>
<path d="M 1023.76 299.992 C 1121.55 299.207 1221.03 301.901 1318.49 300.257 L 1392.46 300.288 C 1400.83 300.295 1422.15 299.855 1429.51 300.808 C 1450.53 299.968 1474.39 300.642 1495.63 300.675 C 1528.37 300.725 1555.64 299.27 1587.96 305.287 L 1591.78 306.324 C 1635.57 318.813 1657.42 332.401 1689.17 363.069 C 1717.08 389.627 1735.07 431.241 1743.68 468.232 L 1744.38 471.786 C 1748.56 501.676 1747.38 544.838 1747.42 575.996 L 1747.15 729.825 L 1747.27 732.139 L 1747.43 916.861 C 1747.35 950.365 1746.21 989.929 1747.24 1023.02 L 1747.05 1026.89 L 1747.05 1034.2 L 1747.22 1317.83 L 1747.29 1320.17 L 1747.17 1475.41 C 1747.21 1506.99 1748.73 1545.73 1744.66 1576.23 L 1743.67 1581.74 C 1737.99 1606.99 1729.83 1629.56 1715.98 1651.61 L 1713.71 1654.98 C 1707.26 1665.33 1700.21 1674.18 1692.63 1683.71 L 1691.1 1685.03 C 1663.82 1714.06 1630.79 1731.22 1592.92 1742.79 L 1589.2 1743.55 C 1557.77 1751.7 1525.34 1750.04 1493.1 1750 L 1410.74 1749.77 C 1388.68 1750.63 1361.77 1749.96 1339.33 1749.93 L 1205.56 1749.77 L 814.575 1749.99 L 598.05 1750.01 L 534.44 1750.04 C 523.842 1750.04 505.78 1750.48 495.7 1749.1 C 487.386 1749.08 476.392 1747.37 468.214 1745.72 L 465.75 1745.29 C 418.267 1733.13 396.168 1720.29 360.251 1688.76 L 358.709 1687.48 C 329.305 1654.38 310.273 1624.38 302.354 1579.78 L 301.387 1575.81 C 297.604 1544.05 298.992 1507.47 298.992 1475.13 L 299.052 1320.38 L 298.653 1317.78 C 300.097 1304.19 298.971 1259.19 298.962 1243.31 L 299.158 1085.1 C 298.457 1069.6 298.918 1050.8 299.15 1035.19 C 298.984 1031.65 299.07 1027.48 299.047 1023.88 L 299.106 652.203 L 299.228 552.797 C 299.336 526.261 298.545 497.766 303.341 471.853 L 303.22 469.866 C 317.437 422.539 326.543 400.826 360.652 364.347 L 361.596 362.887 C 365.729 360.381 377.094 348.845 382.395 344.917 C 408.875 325.294 432.648 315.619 463.969 307.196 L 467.241 306.133 C 474.716 304.85 490.868 301.62 497.627 301.265 C 528.639 299.638 560.924 300.255 592.016 300.281 L 729.682 299.948 L 732.057 300.174 L 921.464 300.283 C 948.233 300.302 996.313 301.593 1021.87 299.705 L 1023.76 299.992 z" fill="rgb(254,254,254)" transform="translate(0,0)"></path>
<path d="M 303.341 471.853 C 320.252 471.894 462.944 471.13 464.841 473.093 C 466.013 474.306 465.609 473.886 466.535 475.697 L 467.528 475.384 L 468.456 473.447 C 473.311 477.223 494.935 499.504 500.307 505.32 C 517.525 523.957 542.598 546.669 558.274 565.846 L 570.161 577.067 L 572.501 576.563 C 628.336 565.122 682.029 571.825 738.212 570.411 C 806.574 568.69 855.646 573.383 914.758 612.462 C 966.124 646.598 1001.71 699.853 1013.59 760.372 C 1021.93 801.341 1018.17 844.518 1018.25 886.347 L 1019.33 1066.72 L 1019.26 1190.95 C 1019.16 1210.45 1019.38 1229.87 1018.69 1249.37 C 1014.19 1375.37 920.468 1475.66 791.755 1477.36 C 772.541 1476 734.887 1476.94 714.436 1477.21 C 661.835 1476.23 595.449 1483.28 546.592 1465.75 C 494.522 1446.88 451.059 1409.77 424.257 1361.3 C 415.822 1346.16 413.075 1336.23 406.317 1322.21 L 405.547 1320.63 L 402.031 1319.62 L 385.997 1319.99 C 357.648 1320.11 327.116 1319.48 299.052 1320.38 L 298.653 1317.78 C 300.097 1304.19 298.971 1259.19 298.962 1243.31 L 299.158 1085.1 C 298.457 1069.6 298.918 1050.8 299.15 1035.19 C 298.984 1031.65 299.07 1027.48 299.047 1023.88 L 299.106 652.203 L 299.228 552.797 C 299.336 526.261 298.545 497.766 303.341 471.853 z" fill="rgb(254,254,254)" transform="translate(0,0)"></path>
<path d="M 303.341 471.853 C 320.252 471.894 462.944 471.13 464.841 473.093 C 466.013 474.306 465.609 473.886 466.535 475.697 L 467.528 475.384 L 468.456 473.447 C 473.311 477.223 494.935 499.504 500.307 505.32 C 517.525 523.957 542.598 546.669 558.274 565.846 L 570.161 577.067 C 538.635 586.233 510.301 598.442 484.642 619.727 C 476.265 626.676 467.157 637.209 459.314 643.526 C 407.399 702.422 388.955 760.184 391.577 838.123 C 392.611 868.857 392.261 909.133 391.16 939.837 C 389.871 953.429 392.134 1018.59 390.418 1024.56 C 387.939 1025.66 386.24 1025.17 383.521 1024.87 C 377.314 1023.3 360.54 1023.87 353.483 1023.86 C 335.329 1023.83 317.239 1024.48 299.047 1023.88 L 299.106 652.203 L 299.228 552.797 C 299.336 526.261 298.545 497.766 303.341 471.853 z" fill="rgb(37,36,36)" transform="translate(0,0)"></path>
<path d="M 558.274 565.846 L 570.161 577.067 C 538.635 586.233 510.301 598.442 484.642 619.727 C 476.265 626.676 467.157 637.209 459.314 643.526 L 458.949 642.866 C 459.401 640.309 464.703 635.833 467.287 632.831 L 467.174 631.349 C 464.314 627.54 462.877 625.621 464.438 620.665 C 473.043 614.197 480.43 606.693 489.181 599.821 C 511.172 582.552 532.502 575.29 558.274 565.846 z" fill="rgb(25,24,25)" transform="translate(0,0)"></path>
<path d="M 391.16 939.837 C 391.876 950.857 392.027 962.971 391.906 974.059 C 390.94 1062.85 392.773 1152 391.657 1240.75 C 393.558 1279.13 396.994 1285.98 405.547 1320.63 L 402.031 1319.62 L 385.997 1319.99 C 357.648 1320.11 327.116 1319.48 299.052 1320.38 L 298.653 1317.78 C 300.097 1304.19 298.971 1259.19 298.962 1243.31 L 299.158 1085.1 C 298.457 1069.6 298.918 1050.8 299.15 1035.19 C 298.984 1031.65 299.07 1027.48 299.047 1023.88 C 317.239 1024.48 335.329 1023.83 353.483 1023.86 C 360.54 1023.87 377.314 1023.3 383.521 1024.87 C 386.24 1025.17 387.939 1025.66 390.418 1024.56 C 392.134 1018.59 389.871 953.429 391.16 939.837 z" fill="rgb(37,36,36)" transform="translate(0,0)"></path>
<path d="M 391.16 939.837 C 391.876 950.857 392.027 962.971 391.906 974.059 C 390.94 1062.85 392.773 1152 391.657 1240.75 C 387.579 1233.5 393.577 1059.03 390.36 1029.09 C 387.614 1027.17 389.119 1027.74 385.615 1027.53 C 384.43 1028.34 383.495 1029.1 382.575 1030.2 C 381.78 1031.16 380.899 1032.45 379.916 1033.21 C 377.234 1035.3 309.415 1034.14 300.085 1034.14 C 300.017 1050.1 300.295 1069.47 299.158 1085.1 C 298.457 1069.6 298.918 1050.8 299.15 1035.19 C 298.984 1031.65 299.07 1027.48 299.047 1023.88 C 317.239 1024.48 335.329 1023.83 353.483 1023.86 C 360.54 1023.87 377.314 1023.3 383.521 1024.87 C 386.24 1025.17 387.939 1025.66 390.418 1024.56 C 392.134 1018.59 389.871 953.429 391.16 939.837 z" fill="rgb(77,77,77)" transform="translate(0,0)"></path>
<path d="M 299.047 1023.88 C 317.239 1024.48 335.329 1023.83 353.483 1023.86 C 360.54 1023.87 377.314 1023.3 383.521 1024.87 C 382.479 1025.56 381.436 1026.26 380.394 1026.95 C 360.416 1028.04 340.212 1027.76 320.208 1027.2 C 314.126 1027.03 307.997 1026.45 301.95 1027.21 C 299.082 1027.57 299.331 1032.74 299.15 1035.19 C 298.984 1031.65 299.07 1027.48 299.047 1023.88 z" fill="rgb(126,125,126)" transform="translate(0,0)"></path>
<path d="M 298.653 1317.78 C 320.314 1318.14 341.977 1318.26 363.64 1318.14 C 374.626 1318.13 390.791 1317.72 401.512 1318.52 L 402.031 1319.62 L 385.997 1319.99 C 357.648 1320.11 327.116 1319.48 299.052 1320.38 L 298.653 1317.78 z" fill="rgb(62,62,63)" transform="translate(0,0)"></path>
<path d="M 731.695 732.707 C 765.095 732.442 804.108 728.114 830.128 753.093 C 846.065 768.392 850.099 789.293 850.1 810.447 L 849.816 861.908 L 1010.31 861.435 C 1010.84 890.419 1011.05 919.407 1010.95 948.396 C 933.898 948.047 853.387 950.061 776.741 948.633 C 766.916 949.124 748.784 948.823 738.615 948.747 C 721.549 948.619 696.511 949.956 680.426 948.317 C 682.677 970.394 680.159 1009.99 680.79 1033.52 C 681.039 1042.81 681.443 1080.68 680.702 1088.75 L 681.02 1118.24 L 851.172 1118.07 L 851.11 1194.9 C 851.113 1213 852.394 1231.49 849.058 1249.3 C 842.638 1283.57 814.208 1310.34 778.292 1309.13 C 769.067 1310.57 718.033 1309.91 705.884 1309.92 L 657.377 1309.93 C 649.349 1309.94 635.212 1310.41 627.708 1309.08 C 613.224 1309.44 593.092 1299.26 583.041 1288.84 C 558.023 1262.9 561.904 1228.88 562.296 1195.75 C 561.275 1177.79 562.193 1150.56 562.225 1132.06 L 562.506 1004.52 L 562.39 902.099 C 562.368 887.478 561.653 861.919 562.845 848.163 C 561.971 814.855 562.284 788.81 586.103 761.695 C 621.569 721.324 680.478 734.994 730.473 732.356 L 731.695 732.707 z" fill="rgb(37,36,36)" transform="translate(0,0)"></path>
<path d="M 562.296 1195.75 C 563.935 1193.51 563.376 1045.08 563.454 1031.65 C 596.671 1034.53 644.902 1032.87 679.533 1032.92 C 680.151 1041.48 678.327 1084.69 680.702 1088.75 L 681.02 1118.24 L 851.172 1118.07 L 851.11 1194.9 C 851.113 1213 852.394 1231.49 849.058 1249.3 C 842.638 1283.57 814.208 1310.34 778.292 1309.13 C 769.067 1310.57 718.033 1309.91 705.884 1309.92 L 657.377 1309.93 C 649.349 1309.94 635.212 1310.41 627.708 1309.08 C 613.224 1309.44 593.092 1299.26 583.041 1288.84 C 558.023 1262.9 561.904 1228.88 562.296 1195.75 z" fill="rgb(37,36,36)" transform="translate(0,0)"></path>
<path d="M 729.885 1308.77 C 729.888 1285.7 727.827 1133.44 731.137 1124.24 C 732.254 1139.39 730.263 1153.93 730.821 1168.07 C 732.669 1214.89 732.192 1261.82 732.116 1308.71 C 742.527 1308.65 769.358 1307.95 778.292 1309.13 C 769.067 1310.57 718.033 1309.91 705.884 1309.92 L 657.377 1309.93 C 649.349 1309.94 635.212 1310.41 627.708 1309.08 C 656.393 1307.25 700.395 1308.68 729.885 1308.77 z" fill="rgb(62,62,63)" transform="translate(0,0)"></path>
<path d="M 731.695 732.707 C 765.095 732.442 804.108 728.114 830.128 753.093 C 846.065 768.392 850.099 789.293 850.1 810.447 L 849.816 861.908 L 1010.31 861.435 C 1010.84 890.419 1011.05 919.407 1010.95 948.396 C 933.898 948.047 853.387 950.061 776.741 948.633 C 773.837 946.774 738.658 947.59 732.269 947.624 L 731.695 732.707 z" fill="rgb(37,36,36)" transform="translate(0,0)"></path>
<path d="M 562.845 848.163 C 564.207 860.27 563.411 893.188 563.408 906.58 L 563.363 1023.95 L 679.701 1023.74 C 679.705 1013.68 679.209 953.224 680.426 948.317 C 682.677 970.394 680.159 1009.99 680.79 1033.52 C 681.039 1042.81 681.443 1080.68 680.702 1088.75 C 678.327 1084.69 680.151 1041.48 679.533 1032.92 C 644.902 1032.87 596.671 1034.53 563.454 1031.65 C 563.376 1045.08 563.935 1193.51 562.296 1195.75 C 561.275 1177.79 562.193 1150.56 562.225 1132.06 L 562.506 1004.52 L 562.39 902.099 C 562.368 887.478 561.653 861.919 562.845 848.163 z" fill="rgb(62,62,63)" transform="translate(0,0)"></path>
<path d="M 730.473 732.356 L 731.695 732.707 L 732.269 947.624 C 738.658 947.59 773.837 946.774 776.741 948.633 C 766.916 949.124 748.784 948.823 738.615 948.747 C 721.549 948.619 696.511 949.956 680.426 948.317 C 686.155 946.949 721.377 947.79 729.826 947.9 C 730.096 877.351 728.819 802.696 730.473 732.356 z" fill="rgb(62,62,63)" transform="translate(0,0)"></path>
<path d="M 1023.76 299.992 C 1121.55 299.207 1221.03 301.901 1318.49 300.257 L 1392.46 300.288 C 1400.83 300.295 1422.15 299.855 1429.51 300.808 C 1450.53 299.968 1474.39 300.642 1495.63 300.675 C 1528.37 300.725 1555.64 299.27 1587.96 305.287 L 1591.78 306.324 C 1635.57 318.813 1657.42 332.401 1689.17 363.069 C 1717.08 389.627 1735.07 431.241 1743.68 468.232 L 1744.38 471.786 C 1748.56 501.676 1747.38 544.838 1747.42 575.996 L 1747.15 729.825 L 1747.27 732.139 L 1747.43 916.861 C 1747.35 950.365 1746.21 989.929 1747.24 1023.02 L 1747.05 1026.89 L 1747.05 1034.2 C 1700.1 1032.67 1649.55 1034.55 1602.06 1033.9 C 1599.2 1031.71 1596.12 1029.75 1593.11 1027.75 L 1591.6 1029.01 C 1591.71 1036.59 1591.69 1044.18 1591.54 1051.76 L 1589.03 1049.75 C 1589.38 1049.18 1589.88 1048.46 1589.96 1047.79 C 1591.45 1033.75 1592.68 1028.79 1577.56 1024.81 C 1581.08 1023.96 1586.36 1024.09 1590.11 1024.02 C 1590.74 999.171 1590.15 971.906 1590.09 946.882 C 1590.15 928.523 1590.92 902.71 1589.58 885.102 L 1591.78 884.699 C 1601.3 886.08 1635.26 886.845 1642.24 881.472 C 1647.71 868.06 1641.57 739.873 1643.84 717.72 C 1650.41 653.543 1599.22 581.703 1533.6 572.746 C 1505.14 568.863 1472.47 570.21 1441.45 570.149 L 1319.49 570.064 L 1318.45 569.906 L 1318.49 553.857 L 1318.44 471.822 L 1147.62 471.949 C 1107.31 471.991 1064.14 472.801 1024.04 471.955 L 1024.08 726.042 L 1043.92 726.103 L 1044.71 727.827 L 1024.01 727.92 C 1023.98 741.408 1023.86 756.003 1022.95 769.408 L 1022.99 767.308 L 1022.68 767.471 C 1020.19 670.864 1021.94 568.755 1021.99 471.711 C 976.558 473.431 923.479 472.014 877.326 472.002 L 626.958 471.862 C 575.365 471.738 522.198 470.82 470.725 471.844 C 493.383 494.768 515.889 517.842 538.241 541.064 C 549.514 552.83 560.679 565.499 572.501 576.563 L 570.161 577.067 L 558.274 565.846 C 542.598 546.669 517.525 523.957 500.307 505.32 C 494.935 499.504 473.311 477.223 468.456 473.447 L 467.528 475.384 L 466.535 475.697 C 465.609 473.886 466.013 474.306 464.841 473.093 C 462.944 471.13 320.252 471.894 303.341 471.853 L 303.22 469.866 C 317.437 422.539 326.543 400.826 360.652 364.347 L 361.596 362.887 C 365.729 360.381 377.094 348.845 382.395 344.917 C 408.875 325.294 432.648 315.619 463.969 307.196 L 467.241 306.133 C 474.716 304.85 490.868 301.62 497.627 301.265 C 528.639 299.638 560.924 300.255 592.016 300.281 L 729.682 299.948 L 732.057 300.174 L 921.464 300.283 C 948.233 300.302 996.313 301.593 1021.87 299.705 L 1023.76 299.992 z" fill="rgb(77,77,77)" transform="translate(0,0)"></path>
<path d="M 1588.6 469.362 C 1589.43 495.362 1588.56 522.232 1588.68 548.245 C 1588.73 560.329 1587.61 582.054 1589.92 593.316 C 1592.26 589.267 1591.45 483.511 1591.26 471.143 C 1607.67 472.363 1631.21 471.731 1648.02 471.77 L 1744.38 471.786 C 1748.56 501.676 1747.38 544.838 1747.42 575.996 L 1747.15 729.825 L 1747.27 732.139 L 1747.43 916.861 C 1747.35 950.365 1746.21 989.929 1747.24 1023.02 L 1747.05 1026.89 L 1747.05 1034.2 C 1700.1 1032.67 1649.55 1034.55 1602.06 1033.9 C 1599.2 1031.71 1596.12 1029.75 1593.11 1027.75 L 1591.6 1029.01 C 1591.71 1036.59 1591.69 1044.18 1591.54 1051.76 L 1589.03 1049.75 C 1589.38 1049.18 1589.88 1048.46 1589.96 1047.79 C 1591.45 1033.75 1592.68 1028.79 1577.56 1024.81 C 1581.08 1023.96 1586.36 1024.09 1590.11 1024.02 C 1590.74 999.171 1590.15 971.906 1590.09 946.882 C 1590.15 928.523 1590.92 902.71 1589.58 885.102 L 1591.78 884.699 C 1601.3 886.08 1635.26 886.845 1642.24 881.472 C 1647.71 868.06 1641.57 739.873 1643.84 717.72 C 1650.41 653.543 1599.22 581.703 1533.6 572.746 C 1505.14 568.863 1472.47 570.21 1441.45 570.149 L 1319.49 570.064 L 1319.71 471.978 C 1406.59 473.055 1495.88 472.009 1582.97 472.068 C 1565.57 488.798 1548.52 505.884 1531.82 523.316 C 1523.43 531.98 1509.34 546.113 1502.22 555.105 L 1502.47 556.104 C 1506.33 553.749 1509.92 549.173 1513.09 545.861 C 1537.85 519.963 1563.26 494.698 1588.6 469.362 z" fill="rgb(37,36,36)" transform="translate(0,0)"></path>
<path d="M 1682.38 1023.83 C 1690.3 1022.56 1737.91 1023.06 1747.24 1023.02 L 1747.05 1026.89 L 1747.05 1034.2 C 1700.1 1032.67 1649.55 1034.55 1602.06 1033.9 C 1599.2 1031.71 1596.12 1029.75 1593.11 1027.75 L 1591.6 1029.01 L 1591.42 1028.13 L 1592.39 1026.93 C 1611.96 1027.54 1638.36 1027.47 1657.93 1026.78 C 1665.52 1025.1 1673.81 1026.13 1682.38 1023.83 z" fill="rgb(62,62,63)" transform="translate(0,0)"></path>
<path d="M 1682.38 1023.83 C 1690.3 1022.56 1737.91 1023.06 1747.24 1023.02 L 1747.05 1026.89 C 1719.51 1028.05 1685.78 1026.97 1657.93 1026.78 C 1665.52 1025.1 1673.81 1026.13 1682.38 1023.83 z" fill="rgb(97,98,99)" transform="translate(0,0)"></path>
<path d="M 1589.58 885.102 L 1591.78 884.699 C 1592.63 927.016 1593.57 982.219 1591.97 1024.02 L 1648.76 1023.57 C 1658.1 1023.51 1673.35 1023.07 1682.38 1023.83 C 1673.81 1026.13 1665.52 1025.1 1657.93 1026.78 C 1638.36 1027.47 1611.96 1027.54 1592.39 1026.93 L 1591.42 1028.13 L 1591.6 1029.01 C 1591.71 1036.59 1591.69 1044.18 1591.54 1051.76 L 1589.03 1049.75 C 1589.38 1049.18 1589.88 1048.46 1589.96 1047.79 C 1591.45 1033.75 1592.68 1028.79 1577.56 1024.81 C 1581.08 1023.96 1586.36 1024.09 1590.11 1024.02 C 1590.74 999.171 1590.15 971.906 1590.09 946.882 C 1590.15 928.523 1590.92 902.71 1589.58 885.102 z" fill="rgb(77,77,77)" transform="translate(0,0)"></path>
<path d="M 1747.15 729.825 L 1747.27 732.139 C 1728.74 732.022 1686.45 733.108 1669.93 731.06 C 1673.61 729.574 1737.93 729.87 1747.15 729.825 z" fill="rgb(77,77,77)" transform="translate(0,0)"></path>
<path d="M 1023.76 299.992 C 1121.55 299.207 1221.03 301.901 1318.49 300.257 L 1318.26 406.126 L 1024.05 406.233 C 1024.39 372.766 1024.94 333.15 1023.76 299.992 z" fill="rgb(37,36,36)" transform="translate(0,0)"></path>
<path d="M 732.057 300.174 L 921.464 300.283 C 948.233 300.302 996.313 301.593 1021.87 299.705 C 1020.88 333.3 1021.91 372.077 1021.97 406.088 L 731.884 406.133 C 732.37 371.116 732.032 335.256 732.057 300.174 z" fill="rgb(37,36,36)" transform="translate(0,0)"></path>
<path d="M 1429.51 300.808 C 1450.53 299.968 1474.39 300.642 1495.63 300.675 C 1528.37 300.725 1555.64 299.27 1587.96 305.287 L 1588.12 406.49 C 1499.91 406.467 1407.7 407.759 1319.74 406.235 L 1319.48 301.279 L 1389.26 301.365 C 1401.41 301.376 1417.87 301.849 1429.51 300.808 z" fill="rgb(37,36,36)" transform="translate(0,0)"></path>
<path d="M 467.241 306.133 C 474.716 304.85 490.868 301.62 497.627 301.265 C 528.639 299.638 560.924 300.255 592.016 300.281 L 729.682 299.948 C 730.634 334.524 729.9 371.39 730.1 406.183 C 675.292 406.557 620.483 406.635 565.674 406.417 C 534.292 406.414 498.623 407.259 467.508 406.287 C 467.499 375.141 466.289 336.491 467.241 306.133 z" fill="rgb(37,36,36)" transform="translate(0,0)"></path>
<path d="M 360.652 364.347 L 430.33 433.834 C 441.105 444.659 455.635 458.552 465.392 469.914 L 303.22 469.866 C 317.437 422.539 326.543 400.826 360.652 364.347 z" fill="rgb(37,36,36)" transform="translate(0,0)"></path>
<path d="M 1689.17 363.069 C 1717.08 389.627 1735.07 431.241 1743.68 468.232 C 1736.33 471.814 1606.18 469.302 1588.67 468.806 C 1596.87 462.067 1603.87 453.192 1611.49 445.648 C 1633.62 423.756 1655.37 401.455 1676.47 378.571 C 1680.78 373.896 1686.09 368.532 1689.17 363.069 z" fill="rgb(37,36,36)" transform="translate(0,0)"></path>
<path d="M 1591.78 306.324 C 1635.57 318.813 1657.42 332.401 1689.17 363.069 C 1683.31 366.488 1670.66 381.004 1665.46 386.664 C 1641.01 413.272 1614.24 438.144 1590.24 465.113 C 1591.33 421.322 1590.6 353.813 1590.64 308.004 C 1591.02 307.444 1591.4 306.884 1591.78 306.324 z" fill="rgb(37,36,36)" transform="translate(0,0)"></path>
<path d="M 361.596 362.887 C 365.729 360.381 377.094 348.845 382.395 344.917 C 408.875 325.294 432.648 315.619 463.969 307.196 C 467.11 317.797 466.298 391.246 466.301 406.474 C 446.532 406.574 426.764 406.798 406.997 407.145 C 391.057 392.764 376.871 376.862 361.596 362.887 z" fill="rgb(37,36,36)" transform="translate(0,0)"></path>
<path d="M 1024.05 408.004 L 1318.34 408.015 C 1318.03 428.455 1318.27 449.57 1318.26 470.062 C 1284.8 469.385 1249.15 469.981 1215.54 469.985 L 1024.06 469.857 L 1024.05 408.004 z" fill="rgb(37,36,36)" transform="translate(0,0)"></path>
<path d="M 731.932 407.93 C 827.004 409.262 926.64 408.185 1021.99 408.009 L 1021.95 470.125 C 987.566 469.432 951.376 469.986 916.811 470.005 L 731.855 469.975 C 732.066 449.294 732.091 428.611 731.932 407.93 z" fill="rgb(37,36,36)" transform="translate(0,0)"></path>
<path d="M 1319.84 408.181 C 1333.66 408.542 1347.54 408.535 1361.35 408.309 C 1436.9 407.077 1512.6 409.635 1588.11 408.503 C 1587.64 428.574 1588.51 449.241 1587.86 469.252 C 1582.54 470.429 1566.92 470.073 1560.72 470.07 L 1511.02 470.022 L 1319.81 469.929 L 1319.84 408.181 z" fill="rgb(37,36,36)" transform="translate(0,0)"></path>
<path d="M 467.51 407.962 C 554.305 408.873 643.187 408.228 730.061 407.942 C 729.859 426.901 730.976 451.771 729.818 470.036 C 673.113 469.093 614.033 469.984 557.139 469.84 C 539.271 469.792 521.404 469.629 503.538 469.353 C 493.083 469.216 477.6 468.701 467.468 469.782 C 467.696 449.342 467.498 428.436 467.51 407.962 z" fill="rgb(37,36,36)" transform="translate(0,0)"></path>
<path d="M 412.267 409.325 C 429.766 408.684 448.414 408.847 466.001 408.781 C 465.899 419.361 467.005 455.851 465.51 464.438 L 464.22 465.322 C 458.012 459.176 412.286 413.296 410.732 410.029 L 412.267 409.325 z" fill="rgb(37,36,36)" transform="translate(0,0)"></path>
<path d="M 405.547 1320.63 L 406.317 1322.21 C 413.075 1336.23 415.822 1346.16 424.257 1361.3 C 451.059 1409.77 494.522 1446.88 546.592 1465.75 C 595.449 1483.28 661.835 1476.23 714.436 1477.21 C 734.887 1476.94 772.541 1476 791.755 1477.36 C 788.405 1479.22 739.585 1478.13 731.51 1478.05 C 731.494 1510.04 732.523 1544.08 732.019 1575.65 L 1020.57 1575.85 C 1020.83 1567.19 1019.04 1543.83 1022.86 1538.16 C 1023.5 1550.79 1023.36 1563.17 1023.32 1575.81 C 1121.03 1575.37 1221.45 1577.12 1318.55 1575.49 L 1318.41 1516.96 C 1318.41 1506.79 1318.05 1491.16 1319.17 1481.43 C 1320.07 1508.65 1320.41 1547.83 1319.55 1575.05 C 1388.14 1574.25 1456.6 1575.85 1525.29 1575.81 L 1568.48 1575.74 C 1573.23 1575.77 1582.61 1577.04 1586.25 1575.06 C 1585.7 1572.58 1585.98 1573.33 1584.84 1571.19 L 1586.79 1571.61 C 1589.01 1568.05 1588.16 1522.16 1588.2 1514.28 C 1588.1 1505.13 1589.48 1451.23 1586.85 1447.25 L 1589.56 1445.12 C 1590.32 1465.95 1590.22 1490.89 1589.86 1511.85 L 1590.06 1576.02 C 1640.56 1576.02 1694.62 1577.17 1744.66 1576.23 L 1743.67 1581.74 C 1737.99 1606.99 1729.83 1629.56 1715.98 1651.61 L 1713.71 1654.98 C 1707.26 1665.33 1700.21 1674.18 1692.63 1683.71 L 1691.1 1685.03 C 1663.82 1714.06 1630.79 1731.22 1592.92 1742.79 L 1589.2 1743.55 C 1557.77 1751.7 1525.34 1750.04 1493.1 1750 L 1410.74 1749.77 C 1388.68 1750.63 1361.77 1749.96 1339.33 1749.93 L 1205.56 1749.77 L 814.575 1749.99 L 598.05 1750.01 L 534.44 1750.04 C 523.842 1750.04 505.78 1750.48 495.7 1749.1 C 487.386 1749.08 476.392 1747.37 468.214 1745.72 L 465.75 1745.29 C 418.267 1733.13 396.168 1720.29 360.251 1688.76 L 358.709 1687.48 C 329.305 1654.38 310.273 1624.38 302.354 1579.78 L 301.387 1575.81 C 297.604 1544.05 298.992 1507.47 298.992 1475.13 L 299.052 1320.38 C 327.116 1319.48 357.648 1320.11 385.997 1319.99 L 402.031 1319.62 L 405.547 1320.63 z" fill="rgb(62,62,63)" transform="translate(0,0)"></path>
<path d="M 299.052 1320.38 C 327.116 1319.48 357.648 1320.11 385.997 1319.99 C 391.066 1384.94 414.536 1453.26 466.248 1495.99 C 465.859 1522.61 465.723 1549.24 465.841 1575.87 C 412.315 1575.97 354.673 1577.12 301.387 1575.81 C 297.604 1544.05 298.992 1507.47 298.992 1475.13 L 299.052 1320.38 z" fill="rgb(37,36,36)" transform="translate(0,0)"></path>
<path d="M 1319.97 1653.99 L 1588.89 1653.87 L 1589.2 1743.55 C 1557.77 1751.7 1525.34 1750.04 1493.1 1750 L 1410.74 1749.77 C 1408.37 1747.94 1330.24 1748.69 1320.36 1748.7 L 1319.97 1653.99 z" fill="rgb(37,36,36)" transform="translate(0,0)"></path>
<path d="M 405.547 1320.63 L 406.317 1322.21 C 413.075 1336.23 415.822 1346.16 424.257 1361.3 C 451.059 1409.77 494.522 1446.88 546.592 1465.75 C 595.449 1483.28 661.835 1476.23 714.436 1477.21 C 720.096 1478.45 724.751 1478.2 730.49 1478.15 C 730.499 1496.54 731.196 1520.01 730.298 1537.99 L 630.51 1538.09 C 598.904 1538.07 548.204 1540.15 520.505 1524.59 C 504.903 1540.14 489.52 1560.28 471.913 1572.68 L 469.549 1574.27 C 464.812 1572.36 471.663 1429.12 466.601 1419.18 C 465.031 1436.56 466.28 1476.75 466.248 1495.99 C 414.536 1453.26 391.066 1384.94 385.997 1319.99 L 402.031 1319.62 L 405.547 1320.63 z" fill="rgb(25,24,25)" transform="translate(0,0)"></path>
<path d="M 471.913 1572.68 C 478.303 1564.68 560.784 1479.27 565.56 1477.34 C 553.438 1492.6 534.619 1510.46 520.505 1524.59 C 504.903 1540.14 489.52 1560.28 471.913 1572.68 z" fill="rgb(62,62,63)" transform="translate(0,0)"></path>
<path d="M 468.025 1655.65 C 538.397 1656.6 609.047 1655.43 679.45 1655.86 C 695.828 1655.96 713.727 1656.33 729.971 1655.37 L 729.785 1748.88 L 570.297 1748.89 C 552.487 1748.89 511.617 1747.6 495.7 1749.1 C 487.386 1749.08 476.392 1747.37 468.214 1745.72 C 468.162 1716.02 468.542 1685.25 468.025 1655.65 z" fill="rgb(37,36,36)" transform="translate(0,0)"></path>
<path d="M 1590.97 1651.9 C 1590.82 1634.83 1589.56 1597.31 1590.93 1581.54 C 1591.58 1580.85 1591.87 1580.46 1592.79 1579.97 C 1598.84 1576.77 1732.8 1576.79 1743.03 1579.74 L 1743.67 1581.74 C 1737.99 1606.99 1729.83 1629.56 1715.98 1651.61 C 1700.02 1652.57 1678.86 1651.97 1662.52 1651.96 C 1654.72 1643.41 1617.82 1604.2 1610.05 1598.97 C 1614.65 1606.64 1651.71 1643.5 1659.89 1651.83 L 1590.97 1651.9 z" fill="rgb(37,36,36)" transform="translate(0,0)"></path>
<path d="M 302.354 1579.78 C 305.606 1577.1 320.901 1578.03 325.657 1578.03 C 372.553 1577.99 419.454 1578.05 466.352 1578.11 C 442.225 1602.53 419.372 1628.23 394.431 1651.83 C 382.006 1663.59 370.448 1675.04 358.709 1687.48 C 329.305 1654.38 310.273 1624.38 302.354 1579.78 z" fill="rgb(37,36,36)" transform="translate(0,0)"></path>
<path d="M 471.913 1572.68 C 489.52 1560.28 504.903 1540.14 520.505 1524.59 C 548.204 1540.15 598.904 1538.07 630.51 1538.09 L 730.298 1537.99 C 729.696 1550.21 729.978 1562.7 730.074 1574.95 L 581.924 1575.18 C 547.947 1575.5 513.895 1575.84 479.907 1576.04 C 476.744 1576.06 474.267 1576.2 472.294 1574.29 L 471.913 1572.68 z" fill="rgb(37,36,36)" transform="translate(0,0)"></path>
<path d="M 360.251 1688.76 C 366.035 1682.94 388.112 1660 393.269 1656.21 C 418.023 1654.87 441.383 1656.39 465.903 1655.95 L 465.75 1745.29 C 418.267 1733.13 396.168 1720.29 360.251 1688.76 z" fill="rgb(37,36,36)" transform="translate(0,0)"></path>
<path d="M 1590.96 1654.02 C 1613.63 1654.49 1638.83 1653.3 1661.16 1654.33 C 1670.82 1663.49 1681.2 1675.22 1691.1 1685.03 C 1663.82 1714.06 1630.79 1731.22 1592.92 1742.79 C 1589.89 1735.25 1590.97 1667.16 1590.96 1654.02 z" fill="rgb(37,36,36)" transform="translate(0,0)"></path>
<path d="M 1664.81 1653.96 C 1673.61 1654.13 1707.26 1653.09 1713.71 1654.98 C 1707.26 1665.33 1700.21 1674.18 1692.63 1683.71 C 1683.17 1673.96 1673.9 1664.04 1664.81 1653.96 z" fill="rgb(37,36,36)" transform="translate(0,0)"></path>
<path d="M 1038.25 1654.5 C 1043.48 1654.2 1048.4 1654.49 1053.6 1654.48 C 1141.74 1654.25 1230.35 1655.66 1318.46 1654.73 C 1317.66 1685.6 1319.6 1717.81 1317.9 1748.73 L 1304.25 1748.71 L 1024.22 1748.62 L 1024.02 1654.76 L 1038.25 1654.5 z" fill="rgb(37,36,36)" transform="translate(0,0)"></path>
<path d="M 997.255 1654.5 C 1004.04 1653.91 1014.62 1654.2 1021.69 1654.18 C 1022.11 1685.36 1021.72 1717.42 1021.67 1748.66 L 754.822 1749.02 C 747.345 1749.06 739.766 1748.94 732.279 1748.9 L 732.029 1655.05 C 820.351 1654.51 908.646 1655.61 997.255 1654.5 z" fill="rgb(37,36,36)" transform="translate(0,0)"></path>
<path d="M 1023.39 1577.98 C 1088.6 1577.12 1154.29 1577.97 1219.53 1577.72 C 1252.18 1577.6 1285.93 1578.46 1318.49 1577.4 C 1318.3 1599.51 1317.97 1631.26 1318.71 1652.86 C 1272.03 1653.77 1222.99 1652.69 1176.23 1652.58 C 1125.76 1652.47 1074.28 1653.05 1023.92 1652.19 C 1023.89 1627.45 1023.71 1602.72 1023.39 1577.98 z" fill="rgb(37,36,36)" transform="translate(0,0)"></path>
<path d="M 732.001 1577.68 C 741.501 1577.96 751.272 1577.9 760.785 1577.83 C 847.406 1577.18 934.193 1578.72 1020.8 1577.85 C 1020.69 1602.58 1020.86 1627.31 1021.31 1652.03 C 983.991 1653.97 939.019 1652.98 901.026 1653.04 C 844.693 1653.59 788.356 1653.66 732.022 1653.23 C 732.144 1628.04 732.137 1602.86 732.001 1577.68 z" fill="rgb(37,36,36)" transform="translate(0,0)"></path>
<path d="M 605.745 1577.5 L 729.947 1577.14 L 729.964 1653.98 L 596.25 1654.02 L 467.938 1654 C 468.336 1628.95 467.992 1603 467.983 1577.88 C 510.943 1579.26 562.439 1578.04 605.745 1577.5 z" fill="rgb(37,36,36)" transform="translate(0,0)"></path>
<path d="M 1319.94 1577.31 L 1588.45 1578.12 C 1588.1 1602.21 1588.76 1627.92 1589.02 1652.1 C 1500.53 1650.97 1409.2 1652.23 1320.5 1652.21 C 1320.88 1627.3 1319.87 1602.36 1319.94 1577.31 z" fill="rgb(37,36,36)" transform="translate(0,0)"></path>
<path d="M 464.933 1582 C 466.722 1585.13 466.068 1646.44 466.103 1654.03 L 400.503 1653.53 L 397.83 1653.28 C 398.194 1651.17 398.387 1650.42 400.058 1648.84 C 422.73 1627.41 443.633 1604.78 464.933 1582 z" fill="rgb(37,36,36)" transform="translate(0,0)"></path>
<path d="M 470.725 471.844 C 522.198 470.82 575.365 471.738 626.958 471.862 L 877.326 472.002 C 923.479 472.014 976.558 473.431 1021.99 471.711 C 1021.94 568.755 1020.19 670.864 1022.68 767.471 L 1022.99 767.308 L 1022.95 769.408 C 1023.86 756.003 1023.98 741.408 1024.01 727.92 L 1044.71 727.827 L 1043.92 726.103 L 1024.08 726.042 L 1024.04 471.955 C 1064.14 472.801 1107.31 471.991 1147.62 471.949 L 1318.44 471.822 L 1318.49 553.857 L 1318.45 569.906 L 1237.92 569.842 C 1182.18 569.679 1144.39 565.342 1100.53 607.849 C 1051.39 655.478 1058.91 701.326 1058.62 762.656 C 1058.27 837.073 1049.1 905.048 1109.04 961.87 C 1141.78 992.902 1187.45 1014.82 1227.25 1036.33 C 1258.7 1053.26 1289.91 1070.63 1320.86 1088.45 C 1318.32 1100.51 1319.7 1135.91 1319.45 1150.49 C 1318.55 1201.93 1317.36 1257.44 1319.13 1308.73 L 1258.78 1308.62 C 1252.24 1308.62 1232.46 1308.35 1226.5 1309.31 C 1225.42 1271.34 1225.97 1231.29 1225.95 1193.14 C 1173.33 1190.77 1110.85 1192.39 1057.68 1192.65 L 1057.89 1288.73 C 1057.78 1347.74 1050.31 1392.19 1096.89 1437.55 C 1138.81 1478.36 1167.65 1477.03 1221.15 1477.23 C 1249.52 1477.4 1277.89 1477.37 1306.27 1477.15 L 1482.24 1476.98 C 1524.75 1476.53 1550.74 1470.9 1586.85 1447.25 C 1589.48 1451.23 1588.1 1505.13 1588.2 1514.28 C 1588.16 1522.16 1589.01 1568.05 1586.79 1571.61 L 1584.84 1571.19 C 1585.98 1573.33 1585.7 1572.58 1586.25 1575.06 C 1582.61 1577.04 1573.23 1575.77 1568.48 1575.74 L 1525.29 1575.81 C 1456.6 1575.85 1388.14 1574.25 1319.55 1575.05 C 1320.41 1547.83 1320.07 1508.65 1319.17 1481.43 C 1318.05 1491.16 1318.41 1506.79 1318.41 1516.96 L 1318.55 1575.49 C 1221.45 1577.12 1121.03 1575.37 1023.32 1575.81 C 1023.36 1563.17 1023.5 1550.79 1022.86 1538.16 C 1019.04 1543.83 1020.83 1567.19 1020.57 1575.85 L 732.019 1575.65 C 732.523 1544.08 731.494 1510.04 731.51 1478.05 C 739.585 1478.13 788.405 1479.22 791.755 1477.36 C 920.468 1475.66 1014.19 1375.37 1018.69 1249.37 C 1019.38 1229.87 1019.16 1210.45 1019.26 1190.95 L 1019.33 1066.72 L 1018.25 886.347 C 1018.17 844.518 1021.93 801.341 1013.59 760.372 C 1001.71 699.853 966.124 646.598 914.758 612.462 C 855.646 573.383 806.574 568.69 738.212 570.411 C 682.029 571.825 628.336 565.122 572.501 576.563 C 560.679 565.499 549.514 552.83 538.241 541.064 C 515.889 517.842 493.383 494.768 470.725 471.844 z" fill="rgb(37,36,36)" transform="translate(0,0)"></path>
<path d="M 1094.22 1027.11 C 1119.79 1027.33 1145.59 1025.99 1171.15 1026.14 C 1179.51 1026.19 1195.66 1025.46 1203.41 1026.6 C 1197.81 1029.66 1037.97 1031.05 1021.81 1028.86 C 1040.24 1025.5 1074.46 1026.75 1094.22 1027.11 z" fill="rgb(77,77,77)" transform="translate(0,0)"></path>
<path d="M 1584.27 1570.47 C 1578.05 1568 1545.18 1532.12 1538.74 1524.52 C 1529.58 1513.72 1501.59 1494.3 1494.99 1485.52 L 1496.32 1485.41 C 1508.71 1493.99 1536.07 1518.68 1546.75 1530.11 C 1551.13 1533.86 1582.39 1566.6 1584.27 1570.47 z" fill="rgb(62,62,63)" transform="translate(0,0)"></path>
<path d="M 1593.11 1027.75 C 1596.12 1029.75 1599.2 1031.71 1602.06 1033.9 C 1649.55 1034.55 1700.1 1032.67 1747.05 1034.2 L 1747.22 1317.83 L 1747.29 1320.17 L 1747.17 1475.41 C 1747.21 1506.99 1748.73 1545.73 1744.66 1576.23 C 1694.62 1577.17 1640.56 1576.02 1590.06 1576.02 L 1589.86 1511.85 C 1590.22 1490.89 1590.32 1465.95 1589.56 1445.12 C 1641.14 1404.88 1643.12 1372.73 1643.36 1311.96 L 1643.33 1239.08 C 1643.27 1212.86 1643.01 1186.54 1643.03 1160.33 C 1643.06 1116.87 1624.88 1079.69 1591.54 1051.76 C 1591.69 1044.18 1591.71 1036.59 1591.6 1029.01 L 1593.11 1027.75 z" fill="rgb(37,36,36)" transform="translate(0,0)"></path>
<path d="M 1591.6 1029.01 L 1593.11 1027.75 C 1594.8 1034.34 1611.85 1051.92 1617.56 1058.08 C 1640.74 1083.11 1653.63 1114.84 1656.68 1148.68 C 1657.67 1160.4 1657.14 1174.58 1657.09 1186.89 C 1656.99 1210.09 1656.78 1233.28 1656.46 1256.48 C 1655.82 1323.31 1662.46 1396.31 1634.54 1458.9 C 1624.28 1481.92 1609.73 1496.75 1589.86 1511.85 C 1590.22 1490.89 1590.32 1465.95 1589.56 1445.12 C 1641.14 1404.88 1643.12 1372.73 1643.36 1311.96 L 1643.33 1239.08 C 1643.27 1212.86 1643.01 1186.54 1643.03 1160.33 C 1643.06 1116.87 1624.88 1079.69 1591.54 1051.76 C 1591.69 1044.18 1591.71 1036.59 1591.6 1029.01 z" fill="rgb(25,24,25)" transform="translate(0,0)"></path>
<path d="M 1747.22 1317.83 L 1747.29 1320.17 C 1719.35 1319.85 1686.55 1321.06 1659.09 1319.47 C 1661.76 1317.32 1736.5 1317.91 1747.22 1317.83 z" fill="rgb(77,77,77)" transform="translate(0,0)"></path>
<path d="M 1320.86 1088.45 L 1322.19 1089.46 C 1349.78 1104.62 1376.91 1120.62 1404.37 1136.01 C 1423.18 1146.55 1444.22 1156.46 1461.62 1169.22 C 1466.47 1172.78 1473.77 1178.69 1475.57 1184.52 C 1478.26 1193.26 1478.48 1296.85 1476.69 1307.95 C 1475.14 1309.34 1476.04 1308.98 1474.05 1309.12 C 1458.39 1310.3 1435.62 1309.71 1419.17 1309.74 L 1320 1309.9 L 1259.08 1309.94 C 1251.57 1309.94 1233.14 1310.36 1226.5 1309.31 C 1232.46 1308.35 1252.24 1308.62 1258.78 1308.62 L 1319.13 1308.73 C 1317.36 1257.44 1318.55 1201.93 1319.45 1150.49 C 1319.7 1135.91 1318.32 1100.51 1320.86 1088.45 z" fill="rgb(37,36,36)" transform="translate(0,0)"></path>
<path d="M 1320.86 1088.45 L 1322.19 1089.46 C 1319.09 1100.56 1321.23 1162.38 1321.32 1176.88 L 1321.03 1308.73 L 1424.83 1308.65 C 1434.63 1308.63 1465.58 1307.98 1474.05 1309.12 C 1458.39 1310.3 1435.62 1309.71 1419.17 1309.74 L 1320 1309.9 L 1259.08 1309.94 C 1251.57 1309.94 1233.14 1310.36 1226.5 1309.31 C 1232.46 1308.35 1252.24 1308.62 1258.78 1308.62 L 1319.13 1308.73 C 1317.36 1257.44 1318.55 1201.93 1319.45 1150.49 C 1319.7 1135.91 1318.32 1100.51 1320.86 1088.45 z" fill="rgb(62,62,63)" transform="translate(0,0)"></path>
<path d="M 1319.89 811.503 C 1366.9 811.764 1413.91 811.676 1460.92 811.24 C 1461.29 834.239 1461.37 857.242 1461.14 880.243 C 1461.03 887.186 1461.28 896.455 1460.72 903.066 C 1456.51 952.784 1476.65 947.049 1517.48 947.042 L 1590.09 946.882 C 1590.15 971.906 1590.74 999.171 1590.11 1024.02 C 1586.36 1024.09 1581.08 1023.96 1577.56 1024.81 C 1504.32 981.96 1427.11 942.833 1354 899.317 C 1345.07 894.002 1329.74 885.741 1320.19 881.939 C 1320.21 858.46 1320.11 834.981 1319.89 811.503 z" fill="rgb(37,36,36)" transform="translate(0,0)"></path>
<path d="M 1319.72 730.994 L 1476.2 731.062 L 1476.15 885.027 C 1513.96 885.268 1551.77 885.293 1589.58 885.102 C 1590.92 902.71 1590.15 928.523 1590.09 946.882 L 1517.48 947.042 C 1476.65 947.049 1456.51 952.784 1460.72 903.066 C 1461.28 896.455 1461.03 887.186 1461.14 880.243 C 1461.37 857.242 1461.29 834.239 1460.92 811.24 C 1413.91 811.676 1366.9 811.764 1319.89 811.503 L 1319.72 730.994 z" fill="rgb(25,24,25)" transform="translate(0,0)"></path>
<path d="M 1227.93 730.877 C 1257.47 730.929 1289.12 731.533 1318.49 730.715 L 1319.72 730.994 L 1319.89 811.503 C 1320.11 834.981 1320.21 858.46 1320.19 881.939 L 1320.12 895.941 L 1316.85 893.859 C 1303.68 887.743 1239 852.767 1231.61 844.992 C 1229.38 842.646 1228.74 838.8 1228.34 835.714 C 1226.75 823.473 1227.87 809.891 1227.92 797.505 L 1227.93 730.877 z" fill="rgb(37,36,36)" transform="translate(0,0)"></path>
<path d="M 1318.49 730.715 L 1319.72 730.994 L 1319.89 811.503 C 1320.11 834.981 1320.21 858.46 1320.19 881.939 L 1320.12 895.941 L 1316.85 893.859 C 1318.95 889.029 1317.99 746.462 1318.49 730.715 z" fill="rgb(62,62,63)" transform="translate(0,0)"></path>
<path d="M 1320.19 881.939 C 1329.74 885.741 1345.07 894.002 1354 899.317 C 1427.11 942.833 1504.32 981.96 1577.56 1024.81 C 1592.68 1028.79 1591.45 1033.75 1589.96 1047.79 C 1589.88 1048.46 1589.38 1049.18 1589.03 1049.75 C 1557.76 1028.53 1521.59 1009.81 1488.49 991.093 L 1320.12 895.941 L 1320.19 881.939 z" fill="rgb(25,24,25)" transform="translate(0,0)"></path>
<path d="M 1902 1020.96 L 1902.9 1017.91 C 1905.8 1016.49 1905.7 1016.72 1908.98 1017.07 C 1917.96 1022.71 1922.1 1037.38 1907.81 1038.65 C 1906.2 1038.78 1904.59 1038.87 1902.97 1038.93 C 1900.28 1040.76 1898.9 1039.91 1896.35 1038.71 C 1891.21 1038.62 1887.71 1039.32 1884.37 1035.15 L 1884.72 1033.2 L 1884.35 1033.53 C 1888.72 1034.56 1888.35 1036.86 1893.43 1036.63 C 1896.58 1034.44 1895.48 1035.82 1897 1032.46 C 1893.71 1026.29 1888.68 1028.39 1885.47 1022.01 L 1886.52 1019.1 C 1891.79 1015.63 1895.8 1017.31 1899.19 1022.01 L 1900.15 1022.36 L 1902 1020.96 z" fill="rgb(254,254,254)" transform="translate(0,0)"></path>
<path d="M 1896.35 1038.71 C 1891.21 1038.62 1887.71 1039.32 1884.37 1035.15 L 1884.72 1033.2 L 1884.35 1033.53 C 1888.72 1034.56 1888.35 1036.86 1893.43 1036.63 C 1896.58 1034.44 1895.48 1035.82 1897 1032.46 C 1893.71 1026.29 1888.68 1028.39 1885.47 1022.01 L 1886.52 1019.1 C 1891.79 1015.63 1895.8 1017.31 1899.19 1022.01 L 1900.15 1022.36 L 1902 1020.96 C 1902.13 1026.44 1902.04 1033.68 1902.97 1038.93 C 1900.28 1040.76 1898.9 1039.91 1896.35 1038.71 z" fill="rgb(37,36,36)" transform="translate(0,0)"></path>
<path d="M 1896.35 1038.71 C 1891.21 1038.62 1887.71 1039.32 1884.37 1035.15 L 1884.72 1033.2 L 1884.35 1033.53 C 1888.72 1034.56 1888.35 1036.86 1893.43 1036.63 C 1896.58 1034.44 1895.48 1035.82 1897 1032.46 C 1893.71 1026.29 1888.68 1028.39 1885.47 1022.01 L 1886.52 1019.1 C 1891.79 1015.63 1895.8 1017.31 1899.19 1022.01 C 1896.4 1020.97 1894.26 1019.93 1891.34 1019.5 L 1889.45 1021.13 L 1890.3 1019.34 L 1888.99 1020.97 C 1893.37 1025.01 1897.62 1027.86 1898.84 1033.44 C 1898 1036.19 1898.13 1036.53 1896.35 1038.71 z" fill="rgb(254,254,254)" transform="translate(0,0)"></path>
<path d="M 1906.58 1027.75 C 1908.59 1026.3 1911.39 1026.67 1912.95 1028.59 C 1914.52 1030.52 1914.31 1033.33 1912.47 1035 C 1911.19 1036.17 1909.37 1036.53 1907.74 1035.95 C 1906.11 1035.36 1904.93 1033.92 1904.69 1032.2 C 1904.45 1030.48 1905.18 1028.77 1906.58 1027.75 z" fill="rgb(37,36,36)" transform="translate(0,0)"></path>
<path d="M 174.531 177.419 C 183.036 182.492 217.934 218.974 226.343 227.514 L 321.419 323.84 C 333.014 335.41 345.228 348.343 357.074 359.442 L 355.666 361.352 L 221.406 225.069 C 206.031 209.325 189.325 193.55 174.531 177.419 z" fill="rgb(77,77,77)" transform="translate(0,0)"></path>
<path d="M 355.7 1690.57 L 357.437 1692.17 C 311.39 1736.57 267.486 1782.19 222.261 1827.26 C 215.051 1834.45 185.106 1865.07 178.574 1869.44 C 180.929 1864.32 232.616 1814.47 239.584 1807.48 C 277.964 1768.19 316.671 1729.21 355.7 1690.57 z" fill="rgb(77,77,77)" transform="translate(0,0)"></path>
<path d="M 1695.3 1686.7 L 1820.29 1813.58 C 1832.57 1826.02 1844.77 1838.53 1856.89 1851.12 C 1860.32 1854.65 1870.95 1864.98 1873.24 1868.49 L 1871.91 1868.53 L 1693.91 1688.27 L 1695.3 1686.7 z" fill="rgb(97,98,99)" transform="translate(0,0)"></path>
<path d="M 1004.9 1892.06 C 1006.24 1892.07 1007.56 1892.11 1008.89 1892.18 C 1012.08 1892.37 1015.6 1892.49 1017.75 1894.84 L 1017.65 1896.6 C 1013.11 1897.48 1010.91 1893.65 1006.31 1895 C 1000.03 1906.15 1013.61 1904.3 1016.89 1906.23 C 1019.45 1909.65 1019.18 1910.65 1019.58 1915.13 C 1017.5 1919.64 1015.01 1922.23 1010.27 1923.98 C 999.332 1922.09 1001.1 1896.85 1004.9 1892.06 z" fill="rgb(254,254,254)" transform="translate(0,0)"></path>
<path d="M 1005.29 1906.86 C 1010.61 1906.79 1012.35 1906.26 1015.96 1910.34 C 1016.82 1914.42 1016.23 1915.28 1015.01 1919.46 C 1010.31 1920.2 1009.23 1920.84 1005.56 1917.63 C 1004.1 1913.63 1004.81 1911.26 1005.29 1906.86 z" fill="rgb(25,24,25)" transform="translate(0,0)"></path>
<path d="M 1763.32 288.199 C 1772.67 278.289 1864.37 184.29 1871.53 180.666 C 1847.19 208.105 1816.69 235.665 1791.18 262.462 C 1783.02 271.033 1772.47 280.393 1764.84 288.943 L 1763.32 288.199 z" fill="rgb(97,98,99)" transform="translate(0,0)"></path>
<path d="M 1034.87 1920.06 C 1036.39 1914.8 1039.98 1899.5 1042.9 1896.84 L 1045.3 1896.69 C 1048.78 1901.17 1047.61 1916.56 1044.82 1920.97 C 1044.08 1913.11 1044.02 1904.67 1043.71 1896.71 C 1042.15 1902.84 1039.59 1918.78 1035.45 1921.52 C 1032.54 1920.83 1033.9 1921.44 1031.68 1918.98 L 1028.19 1919 L 1027.32 1921.21 C 1023.46 1917.74 1022.94 1896.75 1022.81 1890.65 C 1027.92 1900.27 1030.02 1910.27 1034.87 1920.06 z" fill="rgb(254,254,254)" transform="translate(0,0)"></path>
<path d="M 1028.19 1919 C 1026.57 1912.11 1026.32 1907.55 1025.77 1900.5 C 1027.64 1906.76 1029.39 1912.85 1031.68 1918.98 L 1028.19 1919 z" fill="rgb(62,62,63)" transform="translate(0,0)"></path>
<path d="M 1038.92 128.643 C 1042.77 128.82 1043.16 129.039 1046.87 130.338 L 1047.21 131.317 C 1042.85 132.456 1038.9 132.916 1036.88 137.201 C 1037.97 139.588 1043.49 141.703 1046.47 143.286 C 1048.85 147.089 1048.05 146.44 1048.13 151.696 C 1045.88 156.247 1044.26 158.152 1039.21 157.685 C 1029.96 150.793 1033.38 136.952 1038.92 128.643 z" fill="rgb(254,254,254)" transform="translate(0,0)"></path>
<path d="M 1038.73 141.812 C 1043.44 142.999 1044.11 142.858 1046.05 147.388 C 1045.74 151.563 1045.33 151.826 1042.96 155.475 C 1034.41 153.953 1035.13 147.799 1038.73 141.812 z" fill="rgb(37,36,36)" transform="translate(0,0)"></path>
<path d="M 1763.32 288.199 L 1764.84 288.943 C 1745.35 309.038 1725.27 328.644 1706.08 349.064 C 1702.82 352.534 1698.48 357.147 1694.97 360.305 L 1692.87 358.691 C 1697.7 355.795 1712.03 339.986 1716.8 335.181 C 1732.17 319.694 1747.15 302.853 1763.32 288.199 z" fill="rgb(97,98,99)" transform="translate(0,0)"></path>
<path d="M 1006.58 128.742 C 1011.01 128.616 1018.37 129.419 1019.39 134.657 L 1018.08 136.462 C 1014.48 132.988 1013.05 130.825 1007.89 131.3 C 1004.97 133.797 1005.68 132.312 1005.03 135.529 C 1009.29 142.085 1032.86 149.294 1012.77 158.362 C 1007.86 157.781 1001.6 155.385 1002.37 149.583 L 1003.61 148.739 C 1006.74 152.808 1007.83 154.838 1012.64 155.786 C 1015.77 154.687 1015.54 154.64 1017.78 152.114 C 1018.55 144.119 1005.56 146.105 1002.66 135.687 C 1003.19 131.899 1003.97 131.497 1006.58 128.742 z" fill="rgb(254,254,254)" transform="translate(0,0)"></path>
<path d="M 155.88 1017.82 C 160.926 1017.76 162.036 1017.38 165.859 1019.9 L 165.815 1021.09 C 161.705 1020.22 162.512 1019.78 159.004 1020.88 L 157.799 1023.37 C 159.245 1028.59 162.664 1023.35 168.165 1027.43 L 168.102 1029.47 C 165.551 1029.07 163.933 1028.54 161.469 1027.85 C 157.564 1028.85 158.938 1028.18 156.157 1032.62 C 158.151 1034.48 158.002 1034.38 160.547 1035.36 C 164.552 1034.78 164.751 1034.53 167.717 1031.76 L 168.936 1032.04 L 168.441 1033.73 C 165.75 1036.58 165.837 1036.85 162.021 1038.18 C 153.16 1036.93 155.891 1024.87 155.88 1017.82 z" fill="rgb(126,125,126)" transform="translate(0,0)"></path>
<path d="M 1923.02 1016.62 C 1926.81 1017.18 1927.87 1017.22 1929.42 1020.5 C 1928.81 1026.92 1922.4 1031 1923.4 1035.26 C 1926.25 1036.07 1928.42 1036.16 1931.34 1036.44 L 1932.08 1037.41 C 1929.43 1038.71 1925.03 1038.25 1921.75 1038.27 C 1919.83 1038.06 1920.86 1038.33 1918.72 1037.21 C 1919.03 1030.79 1926.01 1027.34 1926.54 1021.32 C 1923.35 1020.14 1922.58 1021.01 1918.57 1021.81 L 1918.04 1021.05 C 1919.81 1018.73 1920.67 1018.39 1923.02 1016.62 z" fill="rgb(254,254,254)" transform="translate(0,0)"></path>
<path d="M 124.71 1016.58 C 128.985 1017.24 129.265 1017.18 132.738 1019.56 C 128.35 1019.8 126.947 1019.73 122.816 1020.96 L 121.989 1022.52 C 125.665 1027.71 133.002 1026.35 133.568 1033.88 C 131.908 1037.37 131.172 1037.54 127.931 1039.55 C 124.248 1038.02 123.726 1037.52 120.481 1035.07 L 121.435 1034.53 C 125.067 1035.61 129.823 1036.06 131.232 1032.01 C 127.621 1026.36 123.2 1029.22 120.112 1023.27 C 120.768 1019.7 122.022 1019.06 124.71 1016.58 z" fill="rgb(254,254,254)" transform="translate(0,0)"></path>
<path d="M 148.271 1018.47 C 150.455 1020.02 149.803 1019.53 151.499 1021.73 C 150.303 1022.74 149.356 1023.5 148.13 1024.45 L 148.316 1026.63 L 152.307 1029.21 C 153.622 1032.74 153.497 1031.01 152.958 1034.55 C 149.182 1039.04 142.315 1038.08 137.629 1035.64 L 137.104 1033.38 L 137.898 1032.21 C 140.352 1033.93 141.568 1035.01 144.469 1035.91 C 147.936 1035 147.875 1035.16 150.705 1032.65 L 150.593 1030.85 C 148.899 1029.91 147.157 1029.29 145.318 1028.68 C 144.771 1025.31 146.791 1022.13 148.271 1018.47 z" fill="rgb(254,254,254)" transform="translate(0,0)"></path>
<path d="M 1026.26 128.59 C 1028.12 132.365 1027.79 153.191 1026.37 157.245 L 1024.46 157.447 C 1024.38 141.229 1020.86 145.527 1026.26 128.59 z" fill="rgb(254,254,254)" transform="translate(0,0)"></path>
<metadata><recraft-signature>{"signed_by": "recraft", "signature_b64": "x5HMAfkhedOgdE5Zf6kHAyeamSYjAOf1w4r0hJKq8WQKjuHgBtaICNYJVjjo9+obZg20jWPdZjhYqugbbuKEAw==", "signing_algo": "Ed25519", "generation_timestamp": 1782402967, "identifier": "6efb1a2b-8969-4841-83f5-95dedcceb4a2"}</recraft-signature></metadata></g>
</svg>